STARTFONT 2.1
FONT --New York-Regular-R-Normal--26-240-78-78-P-138-APPLE-ROMAN
SIZE 24 78 78
FONTBOUNDINGBOX 24 26 0 -5
METRICSSET 2
STARTPROPERTIES 19
FONT_ASCENT 21
FONT_DESCENT 5
PIXEL_SIZE 26
RESOLUTION_X 78
RESOLUTION_Y 78
POINT_SIZE 240
FACE_NAME "New York Regular 24"
FOUNDRY ""
FAMILY_NAME "New York"
WEIGHT_NAME "Regular"
RELATIVE_WEIGHT 50
SLANT "R"
SPACING "P"
SETWIDTH_NAME "Normal"
RELATIVE_SETWIDTH 50
ADD_STYLE_NAME ""
AVERAGE_WIDTH 138
CHARSET_REGISTRY "APPLE"
CHARSET_ENCODING "ROMAN"
ENDPROPERTIES
CHARS 174
STARTCHAR char00
ENCODING 0
SWIDTH 0 0
DWIDTH 0 0
BBX 0 0 0 -5
VVECTOR 0 -5
SWIDTH1 0 0
DWIDTH1 0 0
BITMAP 
ENDCHAR
STARTCHAR char02
ENCODING 2
SWIDTH 0 0
DWIDTH 0 0
BBX 0 0 0 -5
VVECTOR 0 -5
SWIDTH1 0 0
DWIDTH1 0 0
BITMAP 
ENDCHAR
STARTCHAR char04
ENCODING 4
SWIDTH 0 0
DWIDTH 0 0
BBX 0 0 0 -5
VVECTOR 0 -5
SWIDTH1 0 0
DWIDTH1 0 0
BITMAP 
ENDCHAR
STARTCHAR char09
ENCODING 9
SWIDTH 615 0
DWIDTH 16 0
BBX 0 0 16 -5
VVECTOR 16 -5
SWIDTH1 0 0
DWIDTH1 0 0
BITMAP 
ENDCHAR
STARTCHAR char0D
ENCODING 13
SWIDTH 0 0
DWIDTH 0 0
BBX 0 0 0 -5
VVECTOR 0 -5
SWIDTH1 0 0
DWIDTH1 0 0
BITMAP 
ENDCHAR
STARTCHAR space
ENCODING 32
SWIDTH 308 0
DWIDTH 8 0
BBX 0 0 8 -5
VVECTOR 8 -5
SWIDTH1 0 0
DWIDTH1 0 0
BITMAP 
ENDCHAR
STARTCHAR exclam
ENCODING 33
SWIDTH 308 0
DWIDTH 8 0
BBX 2 18 3 0
VVECTOR 4 21
SWIDTH1 0 -1000
DWIDTH1 0 -26
BITMAP 
C0
C0
C0
C0
C0
C0
C0
C0
C0
C0
C0
C0
C0
C0
00
00
C0
C0
ENDCHAR
STARTCHAR quotedbl
ENCODING 34
SWIDTH 385 0
DWIDTH 10 0
BBX 6 4 2 14
VVECTOR 5 21
SWIDTH1 0 -1000
DWIDTH1 0 -26
BITMAP 
84
84
84
84
ENDCHAR
STARTCHAR numbersign
ENCODING 35
SWIDTH 615 0
DWIDTH 16 0
BBX 12 12 2 6
VVECTOR 8 21
SWIDTH1 0 -1000
DWIDTH1 0 -26
BITMAP 
0840
0840
0840
7FF0
1080
1080
1080
1080
FFE0
2100
2100
2100
ENDCHAR
STARTCHAR dollar
ENCODING 36
SWIDTH 538 0
DWIDTH 14 0
BBX 11 22 1 -2
VVECTOR 7 21
SWIDTH1 0 -1000
DWIDTH1 0 -26
BITMAP 
0A00
0A00
3F80
6BC0
CAC0
CA40
CA00
6A00
3A00
1E00
0F00
0B80
0AC0
0A60
0A60
8A60
CA60
EA40
7A80
3F00
0A00
0A00
ENDCHAR
STARTCHAR percent
ENCODING 37
SWIDTH 692 0
DWIDTH 18 0
BBX 12 16 3 0
VVECTOR 9 21
SWIDTH1 0 -1000
DWIDTH1 0 -26
BITMAP 
3040
4840
CC80
CC80
CD00
4900
3200
0200
0400
04C0
0920
0B30
1330
1330
2120
20C0
ENDCHAR
STARTCHAR ampersand
ENCODING 38
SWIDTH 769 0
DWIDTH 20 0
BBX 16 18 2 0
VVECTOR 10 21
SWIDTH1 0 -1000
DWIDTH1 0 -26
BITMAP 
0E00
1900
3100
3100
3200
3400
1800
1800
2C1E
660C
4308
C190
C0D0
C060
6070
7199
3F0F
0E06
ENDCHAR
STARTCHAR quotesingle
ENCODING 39
SWIDTH 231 0
DWIDTH 6 0
BBX 1 4 3 14
VVECTOR 4 21
SWIDTH1 0 -1000
DWIDTH1 0 -26
BITMAP 
80
80
80
80
ENDCHAR
STARTCHAR parenleft
ENCODING 40
SWIDTH 385 0
DWIDTH 10 0
BBX 5 22 2 -2
VVECTOR 5 21
SWIDTH1 0 -1000
DWIDTH1 0 -26
BITMAP 
08
10
20
20
40
40
C0
C0
C0
C0
C0
C0
C0
C0
C0
C0
40
40
20
20
10
08
ENDCHAR
STARTCHAR parenright
ENCODING 41
SWIDTH 385 0
DWIDTH 10 0
BBX 5 22 3 -2
VVECTOR 6 21
SWIDTH1 0 -1000
DWIDTH1 0 -26
BITMAP 
80
40
20
20
10
10
18
18
18
18
18
18
18
18
18
18
10
10
20
20
40
80
ENDCHAR
STARTCHAR asterisk
ENCODING 42
SWIDTH 462 0
DWIDTH 12 0
BBX 7 8 2 10
VVECTOR 6 21
SWIDTH1 0 -1000
DWIDTH1 0 -26
BITMAP 
10
92
54
38
38
54
92
10
ENDCHAR
STARTCHAR plus
ENCODING 43
SWIDTH 462 0
DWIDTH 12 0
BBX 9 9 1 3
VVECTOR 6 21
SWIDTH1 0 -1000
DWIDTH1 0 -26
BITMAP 
0800
0800
0800
0800
FF80
0800
0800
0800
0800
ENDCHAR
STARTCHAR comma
ENCODING 44
SWIDTH 231 0
DWIDTH 6 0
BBX 2 5 2 -3
VVECTOR 3 21
SWIDTH1 0 -1000
DWIDTH1 0 -26
BITMAP 
C0
C0
40
40
80
ENDCHAR
STARTCHAR hyphen
ENCODING 45
SWIDTH 462 0
DWIDTH 12 0
BBX 8 1 2 7
VVECTOR 6 21
SWIDTH1 0 -1000
DWIDTH1 0 -26
BITMAP 
FF
ENDCHAR
STARTCHAR period
ENCODING 46
SWIDTH 231 0
DWIDTH 6 0
BBX 2 2 2 0
VVECTOR 3 21
SWIDTH1 0 -1000
DWIDTH1 0 -26
BITMAP 
C0
C0
ENDCHAR
STARTCHAR slash
ENCODING 47
SWIDTH 538 0
DWIDTH 14 0
BBX 10 18 2 0
VVECTOR 7 21
SWIDTH1 0 -1000
DWIDTH1 0 -26
BITMAP 
00C0
00C0
0180
0180
0300
0300
0600
0600
0C00
0C00
1800
1800
3000
3000
6000
6000
C000
C000
ENDCHAR
STARTCHAR zero
ENCODING 48
SWIDTH 615 0
DWIDTH 16 0
BBX 11 18 2 0
VVECTOR 8 21
SWIDTH1 0 -1000
DWIDTH1 0 -26
BITMAP 
0E00
3180
60C0
60C0
C060
C060
C060
C060
C060
C060
C060
C060
C060
C060
60C0
60C0
3180
0E00
ENDCHAR
STARTCHAR one
ENCODING 49
SWIDTH 615 0
DWIDTH 16 0
BBX 6 18 5 0
VVECTOR 8 21
SWIDTH1 0 -1000
DWIDTH1 0 -26
BITMAP 
10
30
F0
30
30
30
30
30
30
30
30
30
30
30
30
30
30
FC
ENDCHAR
STARTCHAR two
ENCODING 50
SWIDTH 615 0
DWIDTH 16 0
BBX 11 18 2 0
VVECTOR 8 21
SWIDTH1 0 -1000
DWIDTH1 0 -26
BITMAP 
1F80
3FC0
40E0
8060
0060
0060
00C0
00C0
0180
0300
0600
0C00
1800
3000
2000
4020
FFE0
FFE0
ENDCHAR
STARTCHAR three
ENCODING 51
SWIDTH 615 0
DWIDTH 16 0
BBX 11 20 2 -2
VVECTOR 8 21
SWIDTH1 0 -1000
DWIDTH1 0 -26
BITMAP 
1F80
31C0
40C0
00C0
0080
0100
0200
0400
0F80
11C0
00E0
0060
0060
0060
0060
00C0
00C0
C180
E300
7C00
ENDCHAR
STARTCHAR four
ENCODING 52
SWIDTH 615 0
DWIDTH 16 0
BBX 12 18 2 0
VVECTOR 8 21
SWIDTH1 0 -1000
DWIDTH1 0 -26
BITMAP 
0020
0060
00C0
0180
0300
0640
0CC0
18C0
30C0
60C0
C0C0
FFF0
00C0
00C0
00C0
00C0
00C0
03F0
ENDCHAR
STARTCHAR five
ENCODING 53
SWIDTH 615 0
DWIDTH 16 0
BBX 11 20 2 -2
VVECTOR 8 21
SWIDTH1 0 -1000
DWIDTH1 0 -26
BITMAP 
7FC0
7FC0
4000
4000
7000
7C00
1F00
0780
01C0
00C0
00E0
0060
0060
0060
0060
00C0
00C0
0180
0600
F800
ENDCHAR
STARTCHAR six
ENCODING 54
SWIDTH 615 0
DWIDTH 16 0
BBX 11 19 2 0
VVECTOR 8 21
SWIDTH1 0 -1000
DWIDTH1 0 -26
BITMAP 
0180
0600
0C00
1800
3000
6000
6000
C000
CF80
D1C0
C0E0
C060
C060
C060
C060
6060
6040
3080
0F00
ENDCHAR
STARTCHAR seven
ENCODING 55
SWIDTH 615 0
DWIDTH 16 0
BBX 13 18 1 0
VVECTOR 8 21
SWIDTH1 0 -1000
DWIDTH1 0 -26
BITMAP 
FFF8
FFF8
8030
0020
0060
0040
00C0
0080
0180
0100
0300
0200
0600
0400
0C00
0800
1800
1000
ENDCHAR
STARTCHAR eight
ENCODING 56
SWIDTH 615 0
DWIDTH 16 0
BBX 11 18 2 0
VVECTOR 8 21
SWIDTH1 0 -1000
DWIDTH1 0 -26
BITMAP 
1F00
3180
60C0
60C0
60C0
7080
3900
1E00
0F00
3380
61C0
60C0
C060
C060
C060
4040
2080
1F00
ENDCHAR
STARTCHAR nine
ENCODING 57
SWIDTH 615 0
DWIDTH 16 0
BBX 11 18 2 0
VVECTOR 8 21
SWIDTH1 0 -1000
DWIDTH1 0 -26
BITMAP 
1E00
3180
60C0
C0C0
C060
C060
C060
C060
6060
3160
1E60
0060
00C0
00C0
0180
0300
0600
1800
ENDCHAR
STARTCHAR colon
ENCODING 58
SWIDTH 231 0
DWIDTH 6 0
BBX 2 12 2 0
VVECTOR 3 21
SWIDTH1 0 -1000
DWIDTH1 0 -26
BITMAP 
C0
C0
00
00
00
00
00
00
00
00
C0
C0
ENDCHAR
STARTCHAR semicolon
ENCODING 59
SWIDTH 231 0
DWIDTH 6 0
BBX 2 15 2 -3
VVECTOR 3 21
SWIDTH1 0 -1000
DWIDTH1 0 -26
BITMAP 
C0
C0
00
00
00
00
00
00
00
00
C0
C0
40
40
80
ENDCHAR
STARTCHAR less
ENCODING 60
SWIDTH 385 0
DWIDTH 10 0
BBX 6 11 2 2
VVECTOR 5 21
SWIDTH1 0 -1000
DWIDTH1 0 -26
BITMAP 
04
08
10
20
40
80
40
20
10
08
04
ENDCHAR
STARTCHAR equal
ENCODING 61
SWIDTH 538 0
DWIDTH 14 0
BBX 10 4 2 5
VVECTOR 7 21
SWIDTH1 0 -1000
DWIDTH1 0 -26
BITMAP 
FFC0
0000
0000
FFC0
ENDCHAR
STARTCHAR greater
ENCODING 62
SWIDTH 385 0
DWIDTH 10 0
BBX 6 11 2 2
VVECTOR 5 21
SWIDTH1 0 -1000
DWIDTH1 0 -26
BITMAP 
80
40
20
10
08
04
08
10
20
40
80
ENDCHAR
STARTCHAR question
ENCODING 63
SWIDTH 538 0
DWIDTH 14 0
BBX 9 18 3 0
VVECTOR 8 21
SWIDTH1 0 -1000
DWIDTH1 0 -26
BITMAP 
7E00
E100
C080
0080
0080
0180
0300
0700
0E00
1C00
1800
3000
2000
2000
0000
0000
3000
3000
ENDCHAR
STARTCHAR at
ENCODING 64
SWIDTH 769 0
DWIDTH 20 0
BBX 15 13 2 -1
VVECTOR 10 21
SWIDTH1 0 -1000
DWIDTH1 0 -26
BITMAP 
0FE0
3018
600C
63C6
C666
CC66
CC66
CC66
CCA4
4718
6000
3000
0F00
ENDCHAR
STARTCHAR A
ENCODING 65
SWIDTH 769 0
DWIDTH 20 0
BBX 16 18 2 0
VVECTOR 10 21
SWIDTH1 0 -1000
DWIDTH1 0 -26
BITMAP 
0100
0100
0180
0380
02C0
02C0
0440
0460
0460
0830
0830
0FF0
1018
1018
1018
200C
200C
F83F
ENDCHAR
STARTCHAR B
ENCODING 66
SWIDTH 615 0
DWIDTH 16 0
BBX 13 18 1 0
VVECTOR 8 21
SWIDTH1 0 -1000
DWIDTH1 0 -26
BITMAP 
FF80
3060
3030
3030
3030
3030
3060
3FC0
3060
3030
3018
3018
3018
3018
3018
3030
3860
FF80
ENDCHAR
STARTCHAR C
ENCODING 67
SWIDTH 538 0
DWIDTH 14 0
BBX 12 18 1 0
VVECTOR 7 21
SWIDTH1 0 -1000
DWIDTH1 0 -26
BITMAP 
07E0
1870
3030
6010
6000
C000
C000
C000
C000
C000
C000
C000
C000
6000
6010
3030
1870
07E0
ENDCHAR
STARTCHAR D
ENCODING 68
SWIDTH 615 0
DWIDTH 16 0
BBX 14 18 1 0
VVECTOR 8 21
SWIDTH1 0 -1000
DWIDTH1 0 -26
BITMAP 
FF80
3060
3030
3018
3018
300C
300C
300C
300C
300C
300C
300C
300C
3018
3018
3030
3860
FF80
ENDCHAR
STARTCHAR E
ENCODING 69
SWIDTH 538 0
DWIDTH 14 0
BBX 12 18 1 0
VVECTOR 7 21
SWIDTH1 0 -1000
DWIDTH1 0 -26
BITMAP 
FFE0
3070
3030
3010
3000
3000
3040
30C0
3FC0
30C0
3040
3000
3000
3010
3010
3030
3070
FFE0
ENDCHAR
STARTCHAR F
ENCODING 70
SWIDTH 538 0
DWIDTH 14 0
BBX 12 18 1 0
VVECTOR 7 21
SWIDTH1 0 -1000
DWIDTH1 0 -26
BITMAP 
FFE0
3070
3030
3010
3000
3000
3040
30C0
3FC0
30C0
3040
3000
3000
3000
3000
3000
3000
FC00
ENDCHAR
STARTCHAR G
ENCODING 71
SWIDTH 615 0
DWIDTH 16 0
BBX 14 18 1 0
VVECTOR 8 21
SWIDTH1 0 -1000
DWIDTH1 0 -26
BITMAP 
07F0
1838
3018
6008
6000
C000
C000
C000
C000
C07C
C018
C018
C018
6018
6018
3018
1830
07C0
ENDCHAR
STARTCHAR H
ENCODING 72
SWIDTH 692 0
DWIDTH 18 0
BBX 15 18 1 0
VVECTOR 9 21
SWIDTH1 0 -1000
DWIDTH1 0 -26
BITMAP 
FC7E
3018
3018
3018
3018
3018
3018
3018
3FF8
3018
3018
3018
3018
3018
3018
3018
3018
FC7E
ENDCHAR
STARTCHAR I
ENCODING 73
SWIDTH 462 0
DWIDTH 12 0
BBX 6 18 3 0
VVECTOR 6 21
SWIDTH1 0 -1000
DWIDTH1 0 -26
BITMAP 
FC
30
30
30
30
30
30
30
30
30
30
30
30
30
30
30
30
FC
ENDCHAR
STARTCHAR J
ENCODING 74
SWIDTH 385 0
DWIDTH 10 0
BBX 9 23 0 -5
VVECTOR 5 21
SWIDTH1 0 -1000
DWIDTH1 0 -26
BITMAP 
0F80
0300
0300
0300
0300
0300
0300
0300
0300
0300
0300
0300
0300
0300
0300
0300
0300
0300
0300
0300
C200
C400
7800
ENDCHAR
STARTCHAR K
ENCODING 75
SWIDTH 615 0
DWIDTH 16 0
BBX 14 18 1 0
VVECTOR 8 21
SWIDTH1 0 -1000
DWIDTH1 0 -26
BITMAP 
F878
6020
6040
6080
6100
6200
6400
6800
7000
7800
7C00
6E00
6700
6380
61C0
60E0
6070
F9FC
ENDCHAR
STARTCHAR L
ENCODING 76
SWIDTH 615 0
DWIDTH 16 0
BBX 13 18 1 0
VVECTOR 8 21
SWIDTH1 0 -1000
DWIDTH1 0 -26
BITMAP 
FC00
3000
3000
3000
3000
3000
3000
3000
3000
3000
3000
3000
3000
3008
3008
3018
3038
FFF0
ENDCHAR
STARTCHAR M
ENCODING 77
SWIDTH 923 0
DWIDTH 24 0
BBX 20 18 2 0
VVECTOR 12 21
SWIDTH1 0 -1000
DWIDTH1 0 -26
BITMAP 
F801F0
3801C0
2C03C0
2C02C0
2C02C0
2604C0
2604C0
2604C0
2308C0
2308C0
2310C0
2190C0
2190C0
21A0C0
20E0C0
20E0C0
2040C0
F843F0
ENDCHAR
STARTCHAR N
ENCODING 78
SWIDTH 692 0
DWIDTH 18 0
BBX 16 18 1 0
VVECTOR 9 21
SWIDTH1 0 -1000
DWIDTH1 0 -26
BITMAP 
F01F
3804
3804
2C04
2604
2604
2304
2184
2184
20C4
2064
2064
2034
201C
201C
200C
200C
F804
ENDCHAR
STARTCHAR O
ENCODING 79
SWIDTH 615 0
DWIDTH 16 0
BBX 14 18 1 0
VVECTOR 8 21
SWIDTH1 0 -1000
DWIDTH1 0 -26
BITMAP 
0780
1860
3030
6018
6018
C00C
C00C
C00C
C00C
C00C
C00C
C00C
C00C
6018
6018
3030
1860
0780
ENDCHAR
STARTCHAR P
ENCODING 80
SWIDTH 615 0
DWIDTH 16 0
BBX 14 18 1 0
VVECTOR 8 21
SWIDTH1 0 -1000
DWIDTH1 0 -26
BITMAP 
FFC0
3030
3018
3008
300C
300C
300C
300C
3018
3838
37F0
33C0
3000
3000
3000
3000
3000
FC00
ENDCHAR
STARTCHAR Q
ENCODING 81
SWIDTH 615 0
DWIDTH 16 0
BBX 14 22 1 -4
VVECTOR 8 21
SWIDTH1 0 -1000
DWIDTH1 0 -26
BITMAP 
0780
1860
3030
6018
6018
C00C
C00C
C00C
C00C
C00C
C00C
C00C
C00C
6018
6018
3030
1860
0780
0300
0300
0180
00E0
ENDCHAR
STARTCHAR R
ENCODING 82
SWIDTH 615 0
DWIDTH 16 0
BBX 14 18 1 0
VVECTOR 8 21
SWIDTH1 0 -1000
DWIDTH1 0 -26
BITMAP 
FF80
3060
3030
3030
3030
3030
3030
3060
3FC0
3300
3180
3180
30C0
3060
3060
3030
3038
FC1C
ENDCHAR
STARTCHAR S
ENCODING 83
SWIDTH 538 0
DWIDTH 14 0
BBX 11 18 1 0
VVECTOR 7 21
SWIDTH1 0 -1000
DWIDTH1 0 -26
BITMAP 
1F80
21C0
40C0
C040
C000
C000
7000
7C00
1F00
0780
01C0
00E0
0060
0060
8060
C040
E080
7F00
ENDCHAR
STARTCHAR T
ENCODING 84
SWIDTH 615 0
DWIDTH 16 0
BBX 13 19 1 0
VVECTOR 8 21
SWIDTH1 0 -1000
DWIDTH1 0 -26
BITMAP 
8008
FFF8
C618
8608
0600
0600
0600
0600
0600
0600
0600
0600
0600
0600
0600
0600
0600
0600
1F80
ENDCHAR
STARTCHAR U
ENCODING 85
SWIDTH 692 0
DWIDTH 18 0
BBX 16 18 1 0
VVECTOR 9 21
SWIDTH1 0 -1000
DWIDTH1 0 -26
BITMAP 
FC1F
3004
3004
3004
3004
3004
3004
3004
3004
3004
3004
3004
3004
3004
3004
1808
1E10
07E0
ENDCHAR
STARTCHAR V
ENCODING 86
SWIDTH 769 0
DWIDTH 20 0
BBX 16 18 2 0
VVECTOR 10 21
SWIDTH1 0 -1000
DWIDTH1 0 -26
BITMAP 
FC1F
3004
3004
1808
1808
1808
0C10
0C10
0C10
0620
0620
0620
0340
0340
0340
0180
0180
0180
ENDCHAR
STARTCHAR W
ENCODING 87
SWIDTH 1000 0
DWIDTH 26 0
BBX 23 18 1 0
VVECTOR 13 21
SWIDTH1 0 -1000
DWIDTH1 0 -26
BITMAP 
FDF7BE
306208
306208
183410
183410
183410
0C1820
0C1820
0C1820
062C40
062C40
062C40
034680
034680
034680
018300
018300
018300
ENDCHAR
STARTCHAR X
ENCODING 88
SWIDTH 615 0
DWIDTH 16 0
BBX 14 18 1 0
VVECTOR 8 21
SWIDTH1 0 -1000
DWIDTH1 0 -26
BITMAP 
FC7C
3010
1820
1820
0C40
0C40
0680
0680
0300
0300
0580
0580
08C0
08C0
1060
1060
2030
F8FC
ENDCHAR
STARTCHAR Y
ENCODING 89
SWIDTH 615 0
DWIDTH 16 0
BBX 15 18 0 0
VVECTOR 8 21
SWIDTH1 0 -1000
DWIDTH1 0 -26
BITMAP 
FC7E
3018
3010
1820
1820
0C40
0C40
0680
0680
0300
0300
0300
0300
0300
0300
0300
0300
0FC0
ENDCHAR
STARTCHAR Z
ENCODING 90
SWIDTH 462 0
DWIDTH 12 0
BBX 11 19 0 0
VVECTOR 6 21
SWIDTH1 0 -1000
DWIDTH1 0 -26
BITMAP 
2000
7FC0
C0C0
8180
0180
0300
0300
0600
0600
0C00
0C00
1800
1800
3000
3000
6020
6020
C060
FFE0
ENDCHAR
STARTCHAR bracketleft
ENCODING 91
SWIDTH 308 0
DWIDTH 8 0
BBX 4 22 2 -2
VVECTOR 4 21
SWIDTH1 0 -1000
DWIDTH1 0 -26
BITMAP 
F0
C0
C0
C0
C0
C0
C0
C0
C0
C0
C0
C0
C0
C0
C0
C0
C0
C0
C0
C0
C0
F0
ENDCHAR
STARTCHAR backslash
ENCODING 92
SWIDTH 538 0
DWIDTH 14 0
BBX 10 18 2 0
VVECTOR 7 21
SWIDTH1 0 -1000
DWIDTH1 0 -26
BITMAP 
C000
C000
6000
6000
3000
3000
1800
1800
0C00
0C00
0600
0600
0300
0300
0180
0180
00C0
00C0
ENDCHAR
STARTCHAR bracketright
ENCODING 93
SWIDTH 308 0
DWIDTH 8 0
BBX 4 22 2 -2
VVECTOR 4 21
SWIDTH1 0 -1000
DWIDTH1 0 -26
BITMAP 
F0
30
30
30
30
30
30
30
30
30
30
30
30
30
30
30
30
30
30
30
30
F0
ENDCHAR
STARTCHAR asciicircum
ENCODING 94
SWIDTH 308 0
DWIDTH 8 0
BBX 5 3 1 15
VVECTOR 4 21
SWIDTH1 0 -1000
DWIDTH1 0 -26
BITMAP 
20
50
88
ENDCHAR
STARTCHAR underscore
ENCODING 95
SWIDTH 538 0
DWIDTH 14 0
BBX 14 1 0 0
VVECTOR 7 21
SWIDTH1 0 -1000
DWIDTH1 0 -26
BITMAP 
FFFC
ENDCHAR
STARTCHAR grave
ENCODING 96
SWIDTH 231 0
DWIDTH 6 0
BBX 3 3 1 15
VVECTOR 3 21
SWIDTH1 0 -1000
DWIDTH1 0 -26
BITMAP 
80
40
20
ENDCHAR
STARTCHAR a
ENCODING 97
SWIDTH 538 0
DWIDTH 14 0
BBX 11 13 2 0
VVECTOR 8 21
SWIDTH1 0 -1000
DWIDTH1 0 -26
BITMAP 
1F00
6380
C180
C180
0380
0D80
3180
6180
C180
C380
C780
FDE0
70C0
ENDCHAR
STARTCHAR b
ENCODING 98
SWIDTH 615 0
DWIDTH 16 0
BBX 12 18 1 0
VVECTOR 7 21
SWIDTH1 0 -1000
DWIDTH1 0 -26
BITMAP 
2000
6000
E000
6000
6000
6700
6FC0
70E0
6060
6030
6030
6030
6030
6030
6020
7060
78C0
4700
ENDCHAR
STARTCHAR c
ENCODING 99
SWIDTH 462 0
DWIDTH 12 0
BBX 10 13 1 0
VVECTOR 6 21
SWIDTH1 0 -1000
DWIDTH1 0 -26
BITMAP 
0F80
31C0
60C0
6040
C000
C000
C000
C000
C000
6040
70C0
3F80
0E00
ENDCHAR
STARTCHAR d
ENCODING 100
SWIDTH 615 0
DWIDTH 16 0
BBX 12 18 2 0
VVECTOR 8 21
SWIDTH1 0 -1000
DWIDTH1 0 -26
BITMAP 
0020
0060
00E0
0060
0060
0E60
31E0
60E0
4060
C060
C060
C060
C060
C060
6060
70E0
3F70
0E60
ENDCHAR
STARTCHAR e
ENCODING 101
SWIDTH 538 0
DWIDTH 14 0
BBX 11 13 1 0
VVECTOR 7 21
SWIDTH1 0 -1000
DWIDTH1 0 -26
BITMAP 
0F00
31C0
60C0
6060
C060
FFE0
C000
C000
C000
6040
70C0
3F80
0E00
ENDCHAR
STARTCHAR f
ENCODING 102
SWIDTH 385 0
DWIDTH 10 0
BBX 9 18 0 0
VVECTOR 5 21
SWIDTH1 0 -1000
DWIDTH1 0 -26
BITMAP 
0F00
1180
3080
3000
3000
7C00
3000
3000
3000
3000
3000
3000
3000
3000
3000
3000
3000
FC00
ENDCHAR
STARTCHAR g
ENCODING 103
SWIDTH 538 0
DWIDTH 14 0
BBX 11 17 1 -4
VVECTOR 7 21
SWIDTH1 0 -1000
DWIDTH1 0 -26
BITMAP 
1F00
61E0
C0C0
C0C0
C0C0
C0C0
6180
3F00
3000
6000
7F80
3FC0
60E0
C060
C060
60C0
3F00
ENDCHAR
STARTCHAR h
ENCODING 104
SWIDTH 615 0
DWIDTH 16 0
BBX 14 18 1 0
VVECTOR 8 21
SWIDTH1 0 -1000
DWIDTH1 0 -26
BITMAP 
1000
3000
7000
3000
3000
33C0
37E0
3870
3030
3030
3030
3030
3030
3030
3030
3030
3030
FCFC
ENDCHAR
STARTCHAR i
ENCODING 105
SWIDTH 308 0
DWIDTH 8 0
BBX 6 18 1 0
VVECTOR 4 21
SWIDTH1 0 -1000
DWIDTH1 0 -26
BITMAP 
30
30
00
00
00
10
30
70
30
30
30
30
30
30
30
30
30
FC
ENDCHAR
STARTCHAR j
ENCODING 106
SWIDTH 308 0
DWIDTH 8 0
BBX 4 23 1 -5
VVECTOR 3 21
SWIDTH1 0 -1000
DWIDTH1 0 -26
BITMAP 
30
30
00
00
00
10
30
70
30
30
30
30
30
30
30
30
30
30
30
30
30
60
C0
ENDCHAR
STARTCHAR k
ENCODING 107
SWIDTH 615 0
DWIDTH 16 0
BBX 13 18 1 0
VVECTOR 8 21
SWIDTH1 0 -1000
DWIDTH1 0 -26
BITMAP 
1000
3000
7000
3000
3000
30F0
3040
3080
3100
3200
3400
3C00
3600
3300
3180
30C0
3060
FCF8
ENDCHAR
STARTCHAR l
ENCODING 108
SWIDTH 308 0
DWIDTH 8 0
BBX 6 18 1 0
VVECTOR 4 21
SWIDTH1 0 -1000
DWIDTH1 0 -26
BITMAP 
10
30
70
30
30
30
30
30
30
30
30
30
30
30
30
30
30
FC
ENDCHAR
STARTCHAR m
ENCODING 109
SWIDTH 923 0
DWIDTH 24 0
BBX 19 13 3 0
VVECTOR 13 21
SWIDTH1 0 -1000
DWIDTH1 0 -26
BITMAP 
270E00
6F9F00
F1E380
60C180
60C180
60C180
60C180
60C180
60C180
60C180
60C180
60C180
FBF7E0
ENDCHAR
STARTCHAR n
ENCODING 110
SWIDTH 615 0
DWIDTH 16 0
BBX 14 13 1 0
VVECTOR 8 21
SWIDTH1 0 -1000
DWIDTH1 0 -26
BITMAP 
13C0
37E0
F870
3030
3030
3030
3030
3030
3030
3030
3030
3030
FCFC
ENDCHAR
STARTCHAR o
ENCODING 111
SWIDTH 538 0
DWIDTH 14 0
BBX 12 13 1 0
VVECTOR 7 21
SWIDTH1 0 -1000
DWIDTH1 0 -26
BITMAP 
0F00
30C0
6060
6060
C030
C030
C030
C030
C030
6060
6060
30C0
0F00
ENDCHAR
STARTCHAR p
ENCODING 112
SWIDTH 615 0
DWIDTH 16 0
BBX 12 17 2 -4
VVECTOR 8 21
SWIDTH1 0 -1000
DWIDTH1 0 -26
BITMAP 
2700
6FC0
F0E0
6060
6030
6030
6030
6030
6030
6020
7060
78C0
6700
6000
6000
6000
F800
ENDCHAR
STARTCHAR q
ENCODING 113
SWIDTH 615 0
DWIDTH 16 0
BBX 12 17 2 -4
VVECTOR 8 21
SWIDTH1 0 -1000
DWIDTH1 0 -26
BITMAP 
0E20
31E0
60E0
6060
C060
C060
C060
C060
C060
6060
70E0
3F60
0E60
0060
0060
0060
01F0
ENDCHAR
STARTCHAR r
ENCODING 114
SWIDTH 462 0
DWIDTH 12 0
BBX 9 13 1 0
VVECTOR 6 21
SWIDTH1 0 -1000
DWIDTH1 0 -26
BITMAP 
2700
6F80
F180
6000
6000
6000
6000
6000
6000
6000
6000
6000
F800
ENDCHAR
STARTCHAR s
ENCODING 115
SWIDTH 462 0
DWIDTH 12 0
BBX 8 13 2 0
VVECTOR 6 21
SWIDTH1 0 -1000
DWIDTH1 0 -26
BITMAP 
3E
67
C3
C1
E0
78
1E
07
03
81
C1
E2
7C
ENDCHAR
STARTCHAR t
ENCODING 116
SWIDTH 385 0
DWIDTH 10 0
BBX 8 16 1 0
VVECTOR 5 21
SWIDTH1 0 -1000
DWIDTH1 0 -26
BITMAP 
10
10
30
FC
30
30
30
30
30
30
30
30
30
31
3E
1C
ENDCHAR
STARTCHAR u
ENCODING 117
SWIDTH 615 0
DWIDTH 16 0
BBX 12 13 2 0
VVECTOR 8 21
SWIDTH1 0 -1000
DWIDTH1 0 -26
BITMAP 
E0E0
6060
6060
6060
6060
6060
6060
6060
6060
6060
70F0
3F60
1E40
ENDCHAR
STARTCHAR v
ENCODING 118
SWIDTH 615 0
DWIDTH 16 0
BBX 15 13 0 0
VVECTOR 8 21
SWIDTH1 0 -1000
DWIDTH1 0 -26
BITMAP 
FC3E
3008
3008
1810
1810
0C20
0C20
0640
0640
0380
0380
0100
0100
ENDCHAR
STARTCHAR w
ENCODING 119
SWIDTH 846 0
DWIDTH 22 0
BBX 21 13 0 0
VVECTOR 11 21
SWIDTH1 0 -1000
DWIDTH1 0 -26
BITMAP 
FDF0F8
30C020
30C020
186040
186040
0C3080
0C3080
065900
065900
038E00
038E00
010400
010400
ENDCHAR
STARTCHAR x
ENCODING 120
SWIDTH 538 0
DWIDTH 14 0
BBX 11 13 1 0
VVECTOR 7 21
SWIDTH1 0 -1000
DWIDTH1 0 -26
BITMAP 
FBE0
3080
1880
1900
0D00
0E00
0600
0E00
0B00
1300
1180
2180
FBE0
ENDCHAR
STARTCHAR y
ENCODING 121
SWIDTH 615 0
DWIDTH 16 0
BBX 15 18 0 -5
VVECTOR 8 21
SWIDTH1 0 -1000
DWIDTH1 0 -26
BITMAP 
FC3E
3008
3008
1810
1810
0C20
0C20
0640
0640
0380
0380
0100
0100
0200
0200
0400
1C00
1800
ENDCHAR
STARTCHAR z
ENCODING 122
SWIDTH 462 0
DWIDTH 12 0
BBX 10 14 1 0
VVECTOR 6 21
SWIDTH1 0 -1000
DWIDTH1 0 -26
BITMAP 
2000
7FC0
6180
4300
0700
0600
0C00
1C00
1800
3000
7000
6040
C0C0
FFC0
ENDCHAR
STARTCHAR braceleft
ENCODING 123
SWIDTH 385 0
DWIDTH 10 0
BBX 6 21 2 -2
VVECTOR 5 21
SWIDTH1 0 -1000
DWIDTH1 0 -26
BITMAP 
0C
10
20
60
60
60
60
60
60
40
80
40
60
60
60
60
60
60
20
10
0C
ENDCHAR
STARTCHAR bar
ENCODING 124
SWIDTH 231 0
DWIDTH 6 0
BBX 2 21 2 -2
VVECTOR 3 21
SWIDTH1 0 -1000
DWIDTH1 0 -26
BITMAP 
C0
C0
C0
C0
C0
C0
C0
C0
C0
C0
C0
C0
C0
C0
C0
C0
C0
C0
C0
C0
C0
ENDCHAR
STARTCHAR braceright
ENCODING 125
SWIDTH 385 0
DWIDTH 10 0
BBX 6 21 2 -2
VVECTOR 5 21
SWIDTH1 0 -1000
DWIDTH1 0 -26
BITMAP 
C0
20
10
18
18
18
18
18
18
08
04
08
18
18
18
18
18
18
10
20
C0
ENDCHAR
STARTCHAR asciitilde
ENCODING 126
SWIDTH 462 0
DWIDTH 12 0
BBX 8 2 2 16
VVECTOR 6 21
SWIDTH1 0 -1000
DWIDTH1 0 -26
BITMAP 
71
8E
ENDCHAR
STARTCHAR char7F
ENCODING 127
SWIDTH 0 0
DWIDTH 0 0
BBX 0 0 0 -5
VVECTOR 0 -5
SWIDTH1 0 0
DWIDTH1 0 0
BITMAP 
ENDCHAR
STARTCHAR Adieresis
ENCODING 128
SWIDTH 769 0
DWIDTH 20 0
BBX 16 21 2 0
VVECTOR 10 21
SWIDTH1 0 -1000
DWIDTH1 0 -26
BITMAP 
0440
0000
0000
0100
0100
0180
0380
02C0
02C0
0440
0460
0460
0830
0830
0FF0
1018
1018
1018
200C
200C
F83F
ENDCHAR
STARTCHAR Aring
ENCODING 129
SWIDTH 769 0
DWIDTH 20 0
BBX 16 21 2 0
VVECTOR 10 21
SWIDTH1 0 -1000
DWIDTH1 0 -26
BITMAP 
0180
0240
0240
0180
0100
0180
0380
02C0
02C0
0440
0460
0460
0830
0830
0FF0
1018
1018
1018
200C
200C
F83F
ENDCHAR
STARTCHAR Ccedilla
ENCODING 130
SWIDTH 538 0
DWIDTH 14 0
BBX 12 22 1 -4
VVECTOR 7 21
SWIDTH1 0 -1000
DWIDTH1 0 -26
BITMAP 
07E0
1870
3030
6010
6000
C000
C000
C000
C000
C000
C000
C000
C000
6000
6010
3030
1870
07E0
0300
0080
0080
0100
ENDCHAR
STARTCHAR Eacute
ENCODING 131
SWIDTH 538 0
DWIDTH 14 0
BBX 12 21 1 0
VVECTOR 7 21
SWIDTH1 0 -1000
DWIDTH1 0 -26
BITMAP 
0100
0200
0000
FFE0
3070
3030
3010
3000
3000
3040
30C0
3FC0
30C0
3040
3000
3000
3010
3010
3030
3070
FFE0
ENDCHAR
STARTCHAR Ntilde
ENCODING 132
SWIDTH 692 0
DWIDTH 18 0
BBX 16 21 1 0
VVECTOR 9 21
SWIDTH1 0 -1000
DWIDTH1 0 -26
BITMAP 
0710
08E0
0000
701F
3804
3804
2C04
2604
2604
2304
2184
2184
20C4
2064
2064
2034
201C
201C
200C
200C
F804
ENDCHAR
STARTCHAR Odieresis
ENCODING 133
SWIDTH 615 0
DWIDTH 16 0
BBX 14 21 1 0
VVECTOR 8 21
SWIDTH1 0 -1000
DWIDTH1 0 -26
BITMAP 
0840
0000
0000
0780
1860
3030
6018
6018
C00C
C00C
C00C
C00C
C00C
C00C
C00C
C00C
6018
6018
3030
1860
0780
ENDCHAR
STARTCHAR Udieresis
ENCODING 134
SWIDTH 692 0
DWIDTH 18 0
BBX 16 21 1 0
VVECTOR 9 21
SWIDTH1 0 -1000
DWIDTH1 0 -26
BITMAP 
0420
0000
0000
FC1F
3004
3004
3004
3004
3004
3004
3004
3004
3004
3004
3004
3004
3004
3004
1808
1E10
07E0
ENDCHAR
STARTCHAR aacute
ENCODING 135
SWIDTH 538 0
DWIDTH 14 0
BBX 11 18 2 0
VVECTOR 8 21
SWIDTH1 0 -1000
DWIDTH1 0 -26
BITMAP 
0200
0400
0800
0000
0000
1F00
6380
C180
C180
0180
0380
0D80
3180
6180
C380
C780
FDE0
70C0
ENDCHAR
STARTCHAR agrave
ENCODING 136
SWIDTH 538 0
DWIDTH 14 0
BBX 11 18 2 0
VVECTOR 8 21
SWIDTH1 0 -1000
DWIDTH1 0 -26
BITMAP 
1000
0800
0400
0000
0000
1F00
6380
C180
C180
0180
0380
0D80
3180
6180
C380
C780
FDE0
70C0
ENDCHAR
STARTCHAR acircumflex
ENCODING 137
SWIDTH 538 0
DWIDTH 14 0
BBX 11 18 2 0
VVECTOR 8 21
SWIDTH1 0 -1000
DWIDTH1 0 -26
BITMAP 
0800
1400
2200
0000
0000
1F00
6380
C180
C180
0180
0380
0D80
3180
6180
C380
C780
FDE0
70C0
ENDCHAR
STARTCHAR adieresis
ENCODING 138
SWIDTH 538 0
DWIDTH 14 0
BBX 11 16 2 0
VVECTOR 8 21
SWIDTH1 0 -1000
DWIDTH1 0 -26
BITMAP 
1100
0000
0000
1F00
6380
C180
C180
0180
0380
0D80
3180
6180
C380
C780
FDE0
70C0
ENDCHAR
STARTCHAR atilde
ENCODING 139
SWIDTH 538 0
DWIDTH 14 0
BBX 11 17 2 0
VVECTOR 8 21
SWIDTH1 0 -1000
DWIDTH1 0 -26
BITMAP 
1900
2600
0000
0000
1F00
6380
C180
C180
0180
0380
0D80
3180
6180
C380
C780
FDE0
70C0
ENDCHAR
STARTCHAR aring
ENCODING 140
SWIDTH 538 0
DWIDTH 14 0
BBX 11 19 2 0
VVECTOR 8 21
SWIDTH1 0 -1000
DWIDTH1 0 -26
BITMAP 
0C00
1200
1200
0C00
0000
0000
1F00
6380
C180
C180
0180
0380
0D80
3180
6180
C380
C780
FDE0
70C0
ENDCHAR
STARTCHAR ccedilla
ENCODING 141
SWIDTH 462 0
DWIDTH 12 0
BBX 10 16 1 -3
VVECTOR 6 21
SWIDTH1 0 -1000
DWIDTH1 0 -26
BITMAP 
0F80
31C0
60C0
6040
C000
C000
C000
C000
C000
6040
70C0
3F80
0E00
0200
0200
0400
ENDCHAR
STARTCHAR eacute
ENCODING 142
SWIDTH 538 0
DWIDTH 14 0
BBX 11 18 1 0
VVECTOR 7 21
SWIDTH1 0 -1000
DWIDTH1 0 -26
BITMAP 
0200
0400
0800
0000
0000
0F00
31C0
60C0
6060
C060
FFE0
C000
C000
C000
6040
70C0
3F80
0E00
ENDCHAR
STARTCHAR egrave
ENCODING 143
SWIDTH 538 0
DWIDTH 14 0
BBX 11 18 1 0
VVECTOR 7 21
SWIDTH1 0 -1000
DWIDTH1 0 -26
BITMAP 
0800
0400
0200
0000
0000
0F00
31C0
60C0
6060
C060
FFE0
C000
C000
C000
6040
70C0
3F80
0E00
ENDCHAR
STARTCHAR ecircumflex
ENCODING 144
SWIDTH 538 0
DWIDTH 14 0
BBX 11 18 1 0
VVECTOR 7 21
SWIDTH1 0 -1000
DWIDTH1 0 -26
BITMAP 
0200
0500
0880
0000
0000
0F00
31C0
60C0
6060
C060
FFE0
C000
C000
C000
6040
70C0
3F80
0E00
ENDCHAR
STARTCHAR edieresis
ENCODING 145
SWIDTH 538 0
DWIDTH 14 0
BBX 11 16 1 0
VVECTOR 7 21
SWIDTH1 0 -1000
DWIDTH1 0 -26
BITMAP 
1100
0000
0000
0F00
31C0
60C0
6060
C060
FFE0
C000
C000
C000
6040
70C0
3F80
0E00
ENDCHAR
STARTCHAR iacute
ENCODING 146
SWIDTH 308 0
DWIDTH 8 0
BBX 6 18 1 0
VVECTOR 4 21
SWIDTH1 0 -1000
DWIDTH1 0 -26
BITMAP 
08
10
20
00
00
10
30
70
30
30
30
30
30
30
30
30
30
FC
ENDCHAR
STARTCHAR igrave
ENCODING 147
SWIDTH 308 0
DWIDTH 8 0
BBX 6 18 1 0
VVECTOR 4 21
SWIDTH1 0 -1000
DWIDTH1 0 -26
BITMAP 
20
10
08
00
00
10
30
70
30
30
30
30
30
30
30
30
30
FC
ENDCHAR
STARTCHAR icircumflex
ENCODING 148
SWIDTH 308 0
DWIDTH 8 0
BBX 6 18 1 0
VVECTOR 4 21
SWIDTH1 0 -1000
DWIDTH1 0 -26
BITMAP 
10
28
44
00
00
10
30
70
30
30
30
30
30
30
30
30
30
FC
ENDCHAR
STARTCHAR idieresis
ENCODING 149
SWIDTH 308 0
DWIDTH 8 0
BBX 6 16 1 0
VVECTOR 4 21
SWIDTH1 0 -1000
DWIDTH1 0 -26
BITMAP 
44
00
00
10
30
70
30
30
30
30
30
30
30
30
30
FC
ENDCHAR
STARTCHAR ntilde
ENCODING 150
SWIDTH 615 0
DWIDTH 16 0
BBX 13 17 2 0
VVECTOR 9 21
SWIDTH1 0 -1000
DWIDTH1 0 -26
BITMAP 
0C80
1300
0000
0000
2780
6FC0
F0E0
6060
6060
6060
6060
6060
6060
6060
6060
6060
F9F8
ENDCHAR
STARTCHAR oacute
ENCODING 151
SWIDTH 538 0
DWIDTH 14 0
BBX 11 18 1 0
VVECTOR 7 21
SWIDTH1 0 -1000
DWIDTH1 0 -26
BITMAP 
0200
0400
0800
0000
0000
0E00
3180
60C0
60C0
C060
C060
C060
C060
C060
60C0
60C0
3180
0E00
ENDCHAR
STARTCHAR ograve
ENCODING 152
SWIDTH 538 0
DWIDTH 14 0
BBX 11 18 1 0
VVECTOR 7 21
SWIDTH1 0 -1000
DWIDTH1 0 -26
BITMAP 
0800
0400
0200
0000
0000
0E00
3180
60C0
60C0
C060
C060
C060
C060
C060
60C0
60C0
3180
0E00
ENDCHAR
STARTCHAR ocircumflex
ENCODING 153
SWIDTH 538 0
DWIDTH 14 0
BBX 11 18 1 0
VVECTOR 7 21
SWIDTH1 0 -1000
DWIDTH1 0 -26
BITMAP 
0400
0A00
1100
0000
0000
0E00
3180
60C0
60C0
C060
C060
C060
C060
C060
60C0
60C0
3180
0E00
ENDCHAR
STARTCHAR odieresis
ENCODING 154
SWIDTH 538 0
DWIDTH 14 0
BBX 11 16 1 0
VVECTOR 7 21
SWIDTH1 0 -1000
DWIDTH1 0 -26
BITMAP 
1100
0000
0000
0E00
3180
60C0
60C0
C060
C060
C060
C060
C060
60C0
60C0
3180
0E00
ENDCHAR
STARTCHAR otilde
ENCODING 155
SWIDTH 538 0
DWIDTH 14 0
BBX 11 17 1 0
VVECTOR 7 21
SWIDTH1 0 -1000
DWIDTH1 0 -26
BITMAP 
1900
2600
0000
0000
0E00
3180
60C0
60C0
C060
C060
C060
C060
C060
60C0
60C0
3180
0E00
ENDCHAR
STARTCHAR uacute
ENCODING 156
SWIDTH 615 0
DWIDTH 16 0
BBX 12 18 2 0
VVECTOR 8 21
SWIDTH1 0 -1000
DWIDTH1 0 -26
BITMAP 
0200
0400
0800
0000
0000
E0E0
6060
6060
6060
6060
6060
6060
6060
6060
6060
70F0
3F60
1E40
ENDCHAR
STARTCHAR ugrave
ENCODING 157
SWIDTH 615 0
DWIDTH 16 0
BBX 12 18 2 0
VVECTOR 8 21
SWIDTH1 0 -1000
DWIDTH1 0 -26
BITMAP 
0800
0400
0200
0000
0000
E0E0
6060
6060
6060
6060
6060
6060
6060
6060
6060
70F0
3F60
1E40
ENDCHAR
STARTCHAR ucircumflex
ENCODING 158
SWIDTH 615 0
DWIDTH 16 0
BBX 12 18 2 0
VVECTOR 8 21
SWIDTH1 0 -1000
DWIDTH1 0 -26
BITMAP 
0400
0A00
1100
0000
0000
E0E0
6060
6060
6060
6060
6060
6060
6060
6060
6060
70F0
3F60
1E40
ENDCHAR
STARTCHAR udieresis
ENCODING 159
SWIDTH 615 0
DWIDTH 16 0
BBX 12 16 2 0
VVECTOR 8 21
SWIDTH1 0 -1000
DWIDTH1 0 -26
BITMAP 
1100
0000
0000
E0E0
6060
6060
6060
6060
6060
6060
6060
6060
6060
70F0
3F60
1E40
ENDCHAR
STARTCHAR dagger
ENCODING 160
SWIDTH 308 0
DWIDTH 8 0
BBX 5 10 2 10
VVECTOR 5 21
SWIDTH1 0 -1000
DWIDTH1 0 -26
BITMAP 
20
20
F8
20
20
20
20
20
20
20
ENDCHAR
STARTCHAR degree
ENCODING 161
SWIDTH 385 0
DWIDTH 10 0
BBX 5 5 3 14
VVECTOR 6 21
SWIDTH1 0 -1000
DWIDTH1 0 -26
BITMAP 
70
88
88
88
70
ENDCHAR
STARTCHAR cent
ENCODING 162
SWIDTH 538 0
DWIDTH 14 0
BBX 10 17 2 -2
VVECTOR 7 21
SWIDTH1 0 -1000
DWIDTH1 0 -26
BITMAP 
0A00
0A00
1F80
2AC0
6A40
4A00
CA00
CA00
CA00
CA00
CA00
4A00
6A40
3A80
1F00
0A00
0A00
ENDCHAR
STARTCHAR sterling
ENCODING 163
SWIDTH 615 0
DWIDTH 16 0
BBX 13 18 1 0
VVECTOR 8 21
SWIDTH1 0 -1000
DWIDTH1 0 -26
BITMAP 
0F80
19C0
10C0
3000
3000
3000
3000
3000
FE00
3000
3000
3000
3000
3008
3018
3018
3030
FFC0
ENDCHAR
STARTCHAR section
ENCODING 164
SWIDTH 538 0
DWIDTH 14 0
BBX 9 18 2 0
VVECTOR 7 21
SWIDTH1 0 -1000
DWIDTH1 0 -26
BITMAP 
3F00
4780
8180
8080
C000
7000
7C00
9F00
8780
C180
7080
7D00
1F00
0780
8180
C080
E100
7E00
ENDCHAR
STARTCHAR bullet
ENCODING 165
SWIDTH 615 0
DWIDTH 16 0
BBX 10 10 2 3
VVECTOR 7 21
SWIDTH1 0 -1000
DWIDTH1 0 -26
BITMAP 
1E00
7F80
7F80
FFC0
FFC0
FFC0
FFC0
7F80
7F80
1E00
ENDCHAR
STARTCHAR paragraph
ENCODING 166
SWIDTH 692 0
DWIDTH 18 0
BBX 16 18 1 0
VVECTOR 9 21
SWIDTH1 0 -1000
DWIDTH1 0 -26
BITMAP 
0FFF
30CC
60CC
40CC
C0CC
C0CC
C0CC
C0CC
60CC
70CC
3FCC
0ECC
00CC
00CC
00CC
00CC
00CC
03FF
ENDCHAR
STARTCHAR germandbls
ENCODING 167
SWIDTH 538 0
DWIDTH 14 0
BBX 12 18 1 0
VVECTOR 7 21
SWIDTH1 0 -1000
DWIDTH1 0 -26
BITMAP 
0780
1860
3030
2030
6030
6060
60C0
6380
60C0
6060
6030
6030
6030
6070
6060
60E0
61C0
C700
ENDCHAR
STARTCHAR registered
ENCODING 168
SWIDTH 692 0
DWIDTH 18 0
BBX 12 12 3 0
VVECTOR 9 21
SWIDTH1 0 -1000
DWIDTH1 0 -26
BITMAP 
0F00
30C0
6060
4E20
8910
8910
8E10
8910
4920
6060
30C0
0F00
ENDCHAR
STARTCHAR copyright
ENCODING 169
SWIDTH 692 0
DWIDTH 18 0
BBX 12 12 3 0
VVECTOR 9 21
SWIDTH1 0 -1000
DWIDTH1 0 -26
BITMAP 
0F00
30C0
6060
4620
8910
8810
8810
8910
4620
6060
30C0
0F00
ENDCHAR
STARTCHAR trademark
ENCODING 170
SWIDTH 692 0
DWIDTH 18 0
BBX 11 5 2 13
VVECTOR 8 21
SWIDTH1 0 -1000
DWIDTH1 0 -26
BITMAP 
FA20
2360
22A0
2220
2220
ENDCHAR
STARTCHAR acute
ENCODING 171
SWIDTH 308 0
DWIDTH 8 0
BBX 3 3 2 15
VVECTOR 4 21
SWIDTH1 0 -1000
DWIDTH1 0 -26
BITMAP 
20
40
80
ENDCHAR
STARTCHAR dieresis
ENCODING 172
SWIDTH 308 0
DWIDTH 8 0
BBX 5 1 1 17
VVECTOR 4 21
SWIDTH1 0 -1000
DWIDTH1 0 -26
BITMAP 
88
ENDCHAR
STARTCHAR AE
ENCODING 174
SWIDTH 923 0
DWIDTH 24 0
BBX 22 18 1 0
VVECTOR 12 21
SWIDTH1 0 -1000
DWIDTH1 0 -26
BITMAP 
003FF0
003838
005818
005808
009800
009800
011820
011860
03FFE0
021860
041820
041800
081800
081804
101804
10180C
20181C
F87FF8
ENDCHAR
STARTCHAR Oslash
ENCODING 175
SWIDTH 615 0
DWIDTH 16 0
BBX 15 18 0 0
VVECTOR 8 21
SWIDTH1 0 -1000
DWIDTH1 0 -26
BITMAP 
03C2
0C34
1818
301C
302C
6046
6046
6086
6106
6206
6206
6406
6806
300C
300C
3818
4C30
83C0
ENDCHAR
STARTCHAR yen
ENCODING 180
SWIDTH 615 0
DWIDTH 16 0
BBX 15 18 0 0
VVECTOR 8 21
SWIDTH1 0 -1000
DWIDTH1 0 -26
BITMAP 
FC7E
3018
3010
1820
1820
0C40
0C40
3EF0
0680
0300
3FF0
0300
0300
0300
0300
0300
0300
0FC0
ENDCHAR
STARTCHAR ordfeminine
ENCODING 187
SWIDTH 538 0
DWIDTH 14 0
BBX 10 13 2 5
VVECTOR 7 21
SWIDTH1 0 -1000
DWIDTH1 0 -26
BITMAP 
1E00
6700
C300
C700
0B00
3300
6300
C300
C700
FBC0
7180
0000
FFC0
ENDCHAR
STARTCHAR ordmasculine
ENCODING 188
SWIDTH 462 0
DWIDTH 12 0
BBX 10 13 1 5
VVECTOR 6 21
SWIDTH1 0 -1000
DWIDTH1 0 -26
BITMAP 
1E00
3300
6180
4080
C0C0
C0C0
C0C0
4080
6180
3300
1E00
0000
FFC0
ENDCHAR
STARTCHAR ae
ENCODING 190
SWIDTH 769 0
DWIDTH 20 0
BBX 18 13 1 0
VVECTOR 10 21
SWIDTH1 0 -1000
DWIDTH1 0 -26
BITMAP 
1F3E00
63E380
C1C180
C1C0C0
0180C0
03FFC0
0D8000
318000
618000
C3C080
C6E180
FC7F00
701C00
ENDCHAR
STARTCHAR oslash
ENCODING 191
SWIDTH 538 0
DWIDTH 14 0
BBX 13 13 0 0
VVECTOR 7 21
SWIDTH1 0 -1000
DWIDTH1 0 -26
BITMAP 
0708
18D0
3060
3060
60B0
6130
6230
6430
6830
3060
3060
58C0
8700
ENDCHAR
STARTCHAR questiondown
ENCODING 192
SWIDTH 538 0
DWIDTH 14 0
BBX 9 18 2 0
VVECTOR 7 21
SWIDTH1 0 -1000
DWIDTH1 0 -26
BITMAP 
0600
0600
0000
0000
0200
0200
0600
0C00
1C00
3800
7000
6000
C000
8000
8000
8180
4380
3F00
ENDCHAR
STARTCHAR exclamdown
ENCODING 193
SWIDTH 308 0
DWIDTH 8 0
BBX 2 18 3 0
VVECTOR 4 21
SWIDTH1 0 -1000
DWIDTH1 0 -26
BITMAP 
C0
C0
00
00
C0
C0
C0
C0
C0
C0
C0
C0
C0
C0
C0
C0
C0
C0
ENDCHAR
STARTCHAR guillemotleft
ENCODING 199
SWIDTH 538 0
DWIDTH 14 0
BBX 10 11 2 0
VVECTOR 7 21
SWIDTH1 0 -1000
DWIDTH1 0 -26
BITMAP 
0440
0880
1100
2200
4400
8800
4400
2200
1100
0880
0440
ENDCHAR
STARTCHAR guillemotright
ENCODING 200
SWIDTH 538 0
DWIDTH 14 0
BBX 10 11 2 0
VVECTOR 7 21
SWIDTH1 0 -1000
DWIDTH1 0 -26
BITMAP 
8800
4400
2200
1100
0880
0440
0880
1100
2200
4400
8800
ENDCHAR
STARTCHAR ellipsis
ENCODING 201
SWIDTH 692 0
DWIDTH 18 0
BBX 12 2 3 0
VVECTOR 9 21
SWIDTH1 0 -1000
DWIDTH1 0 -26
BITMAP 
C630
C630
ENDCHAR
STARTCHAR uni00A0
ENCODING 202
SWIDTH 615 0
DWIDTH 16 0
BBX 0 0 16 -5
VVECTOR 16 -5
SWIDTH1 0 0
DWIDTH1 0 0
BITMAP 
ENDCHAR
STARTCHAR Agrave
ENCODING 203
SWIDTH 769 0
DWIDTH 20 0
BBX 16 21 2 0
VVECTOR 10 21
SWIDTH1 0 -1000
DWIDTH1 0 -26
BITMAP 
0100
0080
0000
0100
0100
0180
0380
02C0
02C0
0440
0460
0460
0830
0830
0FF0
1018
1018
1018
200C
200C
F83F
ENDCHAR
STARTCHAR Atilde
ENCODING 204
SWIDTH 769 0
DWIDTH 20 0
BBX 16 21 2 0
VVECTOR 10 21
SWIDTH1 0 -1000
DWIDTH1 0 -26
BITMAP 
0710
08E0
0000
0100
0100
0180
0380
02C0
02C0
0440
0460
0460
0830
0830
0FF0
1018
1018
1018
200C
200C
F83F
ENDCHAR
STARTCHAR Otilde
ENCODING 205
SWIDTH 615 0
DWIDTH 16 0
BBX 14 21 1 0
VVECTOR 8 21
SWIDTH1 0 -1000
DWIDTH1 0 -26
BITMAP 
0E20
11C0
0000
0780
1860
3030
6018
6018
C00C
C00C
C00C
C00C
C00C
C00C
C00C
C00C
6018
6018
3030
1860
0780
ENDCHAR
STARTCHAR OE
ENCODING 206
SWIDTH 923 0
DWIDTH 24 0
BBX 21 18 1 0
VVECTOR 12 21
SWIDTH1 0 -1000
DWIDTH1 0 -26
BITMAP 
07FFE0
187070
303030
603010
603000
C03000
C03040
C030C0
C03FC0
C030C0
C03040
C03000
C03000
603008
603008
303018
187038
07FFF0
ENDCHAR
STARTCHAR oe
ENCODING 207
SWIDTH 846 0
DWIDTH 22 0
BBX 20 13 1 0
VVECTOR 11 21
SWIDTH1 0 -1000
DWIDTH1 0 -26
BITMAP 
0E0780
3198E0
60F060
60F030
C06030
C07FF0
C06000
C06000
C06000
60F020
60F860
319FC0
0E0700
ENDCHAR
STARTCHAR endash
ENCODING 208
SWIDTH 385 0
DWIDTH 10 0
BBX 8 2 1 7
VVECTOR 5 21
SWIDTH1 0 -1000
DWIDTH1 0 -26
BITMAP 
FF
FF
ENDCHAR
STARTCHAR emdash
ENCODING 209
SWIDTH 692 0
DWIDTH 18 0
BBX 16 2 1 7
VVECTOR 9 21
SWIDTH1 0 -1000
DWIDTH1 0 -26
BITMAP 
FFFF
FFFF
ENDCHAR
STARTCHAR quotedblleft
ENCODING 210
SWIDTH 385 0
DWIDTH 10 0
BBX 6 5 2 13
VVECTOR 5 21
SWIDTH1 0 -1000
DWIDTH1 0 -26
BITMAP 
44
88
88
CC
CC
ENDCHAR
STARTCHAR quotedblright
ENCODING 211
SWIDTH 385 0
DWIDTH 10 0
BBX 6 5 2 13
VVECTOR 5 21
SWIDTH1 0 -1000
DWIDTH1 0 -26
BITMAP 
CC
CC
44
44
88
ENDCHAR
STARTCHAR quoteleft
ENCODING 212
SWIDTH 231 0
DWIDTH 6 0
BBX 2 5 2 13
VVECTOR 3 21
SWIDTH1 0 -1000
DWIDTH1 0 -26
BITMAP 
40
80
80
C0
C0
ENDCHAR
STARTCHAR quoteright
ENCODING 213
SWIDTH 231 0
DWIDTH 6 0
BBX 2 5 2 13
VVECTOR 3 21
SWIDTH1 0 -1000
DWIDTH1 0 -26
BITMAP 
C0
C0
40
40
80
ENDCHAR
STARTCHAR lozenge
ENCODING 215
SWIDTH 692 0
DWIDTH 18 0
BBX 13 14 2 2
VVECTOR 9 21
SWIDTH1 0 -1000
DWIDTH1 0 -26
BITMAP 
0200
0500
0880
1040
2020
4010
8008
8008
4010
2020
1040
0880
0500
0200
ENDCHAR
STARTCHAR ydieresis
ENCODING 216
SWIDTH 615 0
DWIDTH 16 0
BBX 15 22 0 -5
VVECTOR 8 21
SWIDTH1 0 -1000
DWIDTH1 0 -26
BITMAP 
0420
0000
0000
0000
FC3E
3008
3008
1810
1810
0C20
0C20
0640
0640
0380
0380
0100
0100
0200
0200
0400
1C00
1800
ENDCHAR
STARTCHAR Ydieresis
ENCODING 217
SWIDTH 769 0
DWIDTH 20 0
BBX 18 26 1 -5
VVECTOR 10 21
SWIDTH1 0 -1000
DWIDTH1 0 -26
BITMAP 
080400
040800
03F000
040800
052800
040800
040800
7FFF80
900240
93F240
921240
921240
93F240
900240
900240
F213C0
500280
900240
9FFE40
4F3C80
092400
092400
092400
092400
061800
061800
ENDCHAR
STARTCHAR missing
ENCODING -1
SWIDTH 923 0
DWIDTH 24 0
BBX 18 19 3 0
VVECTOR 12 21
SWIDTH1 0 -1000
DWIDTH1 0 -26
BITMAP 
FFFFC0
800040
800040
800040
800040
800040
800040
800040
800040
800040
800040
800040
800040
800040
800040
800040
800040
800040
FFFFC0
ENDCHAR
ENDFONT
